Coordinates
version=1
nRows=6
nColumns=46
inDegrees=yes

Units are S.I. units (second, meters, Newtons, ...)
Angles are in degrees.

endheader
time	pelvis_tilt	pelvis_list	pelvis_rotation	pelvis_tx	pelvis_ty	pelvis_tz	bb_angle	bb_tx	bb_ty	bb_tz	hip_flexion_r	hip_adduction_r	hip_rotation_r	knee_angle_r	knee_angle_r_beta	ankle_angle_r	subtalar_angle_r	mtp_angle_r	crank_angle_r	hip_flexion_l	hip_adduction_l	hip_rotation_l	knee_angle_l	knee_angle_l_beta	ankle_angle_l	subtalar_angle_l	mtp_angle_l	crank_angle_l	lumbar_extension	lumbar_bending	lumbar_rotation	arm_flex_r	arm_add_r	arm_rot_r	elbow_flex_r	pro_sup_r	wrist_flex_r	wrist_dev_r	arm_flex_l	arm_add_l	arm_rot_l	elbow_flex_l	pro_sup_l	wrist_flex_l	wrist_dev_l
      7.50000000	    -18.94703400	     -5.13484729	     -6.23763001	      0.26042638	      1.17838608	     -0.21038711	      0.00000000	      0.50000000	      0.00000000	      0.25000000	     23.07090959	    -16.23479956	     -0.23250247	     57.85440503	      1.00974985	     -8.76303722	     -5.99539294	      0.00000000	      0.00000000	     24.09061665	    -14.21806518	    -11.96704409	     23.64136433	      0.41261965	     -1.84774560	      7.11454764	      0.00000000	      0.00000000	    -46.15393452	      3.42256142	      1.69192548	     74.99914278	      7.52338033	     58.58950751	     12.12887066	     46.42334386	      0.00000000	      0.00000000	     55.64364667	    -13.82217004	     14.07470180	     47.33094230	     49.85694857	      0.00000000	      0.00000000
      7.50500000	    -18.86366515	     -5.28466567	     -6.40219457	      0.26064579	      1.17894254	     -0.21110013	      0.00000000	      0.50000000	      0.00000000	      0.25000000	     23.21340706	    -16.28503415	     -0.08234297	     58.89813585	      1.02796639	     -8.79219659	     -6.46275905	      0.00000000	      0.00000000	     24.00907406	    -14.35936468	    -11.73636646	     24.09166314	      0.42047884	     -2.07630818	      6.69209747	      0.00000000	      0.00000000	    -46.32451077	      3.48390540	      1.87692640	     75.09066730	      7.52807951	     58.67943607	     12.08530147	     46.41761756	      0.00000000	      0.00000000	     55.60705302	    -13.76088328	     13.96349304	     47.38418593	     49.86917377	      0.00000000	      0.00000000
      7.51000000	    -18.75243221	     -5.43192275	     -6.56550861	      0.26095572	      1.17953184	     -0.21181854	      0.00000000	      0.50000000	      0.00000000	      0.25000000	     23.32168836	    -16.35639545	      0.01632880	     59.89780541	      1.04541392	     -8.90615705	     -6.78893848	      0.00000000	      0.00000000	     23.86807471	    -14.49345808	    -11.52939524	     24.52307688	      0.42800843	     -2.28279943	      6.32876438	      0.00000000	      0.00000000	    -46.53281604	      3.55774772	      2.05877627	     75.17114072	      7.53108863	     58.73567178	     12.05653124	     46.41302229	      0.00000000	      0.00000000	     55.55169540	    -13.71340326	     13.88664924	     47.41487968	     49.87585804	      0.00000000	      0.00000000
      7.51500000	    -18.74626672	     -5.59407454	     -6.76093892	      0.26111331	      1.17995431	     -0.21255095	      0.00000000	      0.50000000	      0.00000000	      0.25000000	     23.57989996	    -16.39632642	      0.14399161	     60.95329904	      1.06383576	     -8.98820164	     -7.27415172	      0.00000000	      0.00000000	     23.85101466	    -14.63751158	    -11.25568428	     24.99382326	      0.43622451	     -2.43235611	      5.73344251	      0.00000000	      0.00000000	    -46.62566392	      3.58986238	      2.25271864	     75.24394437	      7.49786821	     58.84129898	     11.97783408	     46.40487227	      0.00000000	      0.00000000	     55.52811479	    -13.61258844	     13.74098288	     47.50093345	     49.89080219	      0.00000000	      0.00000000
      7.52000000	    -18.68795147	     -5.75849632	     -6.91208086	      0.26141048	      1.18042535	     -0.21329618	      0.00000000	      0.50000000	      0.00000000	      0.25000000	     23.74505341	    -16.46534599	      0.22573413	     61.98922781	      1.08191613	     -8.94472811	     -7.63527330	      0.00000000	      0.00000000	     23.75789069	    -14.77717921	    -11.02011976	     25.41425846	      0.44356249	     -2.57477706	      5.32746953	      0.00000000	      0.00000000	    -46.75540816	      3.65927728	      2.42490440	     75.30278015	      7.48007617	     58.92618124	     11.93587649	     46.40208099	      0.00000000	      0.00000000	     55.44941652	    -13.53148247	     13.62117302	     47.54969885	     49.89909653	      0.00000000	      0.00000000
      7.52500000	    -18.85185657	     -5.90051169	     -7.11957038	      0.26143895	      1.18054721	     -0.21407763	      0.00000000	      0.50000000	      0.00000000	      0.25000000	     24.21672493	    -16.53069082	      0.38508917	     63.06173528	      1.10063491	     -9.11371723	     -7.89057920	      0.00000000	      0.00000000	     23.91196329	    -14.88656761	    -10.65823979	     25.84600197	      0.45109783	     -2.70183922	      4.68035405	      0.00000000	      0.00000000	    -46.64495729	      3.73046654	      2.63976510	     75.31875352	      7.41997749	     59.33691793	     11.81694086	     46.41310301	      0.00000000	      0.00000000	     55.28105914	    -13.31713074	     13.12484139	     47.71547385	     49.93165591	      0.00000000	      0.00000000
